<svg width="11" height="8" viewBox="0 0 11 8" fill="none" xmlns="http://www.w3.org/2000/svg">
<path d="M8.37236 5.2778C7.63793 5.2778 7.04256 4.65597 7.04256 3.8889C7.04256 3.12183 7.63793 2.5 8.37236 2.5C9.10678 2.5 9.70215 3.12183 9.70215 3.8889C9.70215 4.65597 9.10678 5.2778 8.37236 5.2778Z" stroke="#FF5800" stroke-linecap="round" stroke-linejoin="round"/>
<path d="M6.24466 7.50003C6.24466 6.91066 6.46883 6.34543 6.86784 5.92868C7.26686 5.51193 7.80804 5.2778 8.37233 5.2778C8.93662 5.2778 9.47781 5.51193 9.87682 5.92868C10.2758 6.34543 10.5 6.91066 10.5 7.50003" stroke="#FF5800" stroke-linecap="round" stroke-linejoin="round"/>
<path d="M5.50004 3.2778C4.76562 3.2778 4.17025 2.65597 4.17025 1.8889C4.17025 1.12183 4.76562 0.5 5.50004 0.5C6.23447 0.5 6.82983 1.12183 6.82983 1.8889C6.82983 2.65597 6.23447 3.2778 5.50004 3.2778Z" stroke="#FF5800" stroke-linecap="round" stroke-linejoin="round"/>
<path d="M3.99542 3.92868C4.39443 3.51193 4.93561 3.2778 5.49991 3.2778C6.0642 3.2778 6.60538 3.51193 7.00439 3.92868" stroke="#FF5800" stroke-linecap="round" stroke-linejoin="round"/>
<path d="M2.62767 5.2778C1.89324 5.2778 1.29787 4.65597 1.29787 3.8889C1.29787 3.12183 1.89324 2.5 2.62767 2.5C3.36209 2.5 3.95746 3.12183 3.95746 3.8889C3.95746 4.65597 3.36209 5.2778 2.62767 5.2778Z" stroke="#FF5800" stroke-linecap="round" stroke-linejoin="round"/>
<path d="M0.500035 7.50003C0.500035 6.91066 0.724199 6.34543 1.12321 5.92868C1.52223 5.51193 2.06341 5.2778 2.6277 5.2778C3.192 5.2778 3.73318 5.51193 4.13219 5.92868C4.53121 6.34543 4.75537 6.91066 4.75537 7.50003" stroke="#FF5800" stroke-linecap="round" stroke-linejoin="round"/>
</svg>
